<svg width="22" height="20" fill="none" xmlns="http://www.w3.org/2000/svg"><path d="M11.167 19.394c-.297 0-.584-.039-.823-.125C6.692 18.017.888 13.571.888 7.002.888 3.656 3.594.94 6.921.94c1.616 0 3.127.631 4.246 1.76A5.942 5.942 0 0 1 15.412.94c3.327 0 6.033 2.725 6.033 6.062 0 6.578-5.804 11.015-9.456 12.267-.24.086-.526.125-.822.125ZM6.92 2.374c-2.533 0-4.599 2.075-4.599 4.628 0 6.53 6.282 10.164 8.49 10.92.173.056.546.056.718 0 2.2-.756 8.49-4.38 8.49-10.92 0-2.553-2.065-4.628-4.598-4.628A4.543 4.543 0 0 0 11.75 4.23c-.268.364-.88.364-1.147 0A4.56 4.56 0 0 0 6.92 2.374Z" fill="#F3F3F3"/></svg>