<svg aria-hidden="true" style="width:0;height:0;position:absolute;overflow:hidden" xmlns="http://www.w3.org/2000/svg"><defs><symbol id="icon-search" viewBox="0 0 32 32"><path fill="#8a8a8a" style="fill:var(--color1,#8a8a8a)" d="M15.333 29C7.8 29 1.666 22.867 1.666 15.333S7.799 1.666 15.333 1.666C22.866 1.666 29 7.799 29 15.333S22.867 29 15.333 29zm0-25.333c-6.44 0-11.667 5.24-11.667 11.667s5.227 11.667 11.667 11.667c6.44 0 11.667-5.24 11.667-11.667S21.773 3.667 15.333 3.667zM29.333 30.333a.99.99 0 0 1-.707-.293l-2.667-2.667c-.387-.387-.387-1.027 0-1.413s1.027-.387 1.413 0l2.667 2.667a1.005 1.005 0 0 1 0 1.413c-.2.2-.453.293-.707.293z"/></symbol><symbol id="icon-be" viewBox="0 0 32 32"><path d="M12 25H4a2.344 2.344 0 0 1-2.333-2.333V9.334A2.344 2.344 0 0 1 4 7.001h6.667c2.76 0 5 2.24 5 5 0 1.373-.56 2.613-1.453 3.52a4.994 4.994 0 0 1 2.787 4.48c0 2.76-2.24 5-5 5zm-8.333-8v5.667A.33.33 0 0 0 4 23h8c1.653 0 3-1.347 3-3s-1.347-3-3-3H3.667zm0-2h7c1.653 0 3-1.347 3-3s-1.347-3-3-3H4a.33.33 0 0 0-.333.333V15zM26.227 25H24c-3.493 0-6.333-2.84-6.333-6.333s2.84-6.333 6.333-6.333a6.339 6.339 0 0 1 6.333 6.333c0 .547-.453 1-1 1h-9.547A4.343 4.343 0 0 0 23.999 23h2.227c.547 0 1 .453 1 1s-.453 1-1 1zm-6.44-7.333h8.44c-.453-1.907-2.173-3.333-4.213-3.333s-3.773 1.427-4.227 3.333zM26 11h-4c-.547 0-1-.453-1-1s.453-1 1-1h4c.547 0 1 .453 1 1s-.453 1-1 1z"/></symbol><symbol id="icon-figma" viewBox="0 0 32 32"><path d="M17 12.56h-5.44c-3 0-5.44-2.44-5.44-5.44s2.44-5.44 5.44-5.44H17v10.88zm-5.44-8.894c-1.893 0-3.44 1.547-3.44 3.44s1.547 3.44 3.44 3.44H15V3.653h-3.44v.013z"/><path d="M17 21.44h-5.44c-3 0-5.44-2.44-5.44-5.44s2.44-5.44 5.44-5.44H17v10.88zm-5.44-8.88c-1.893 0-3.44 1.547-3.44 3.44s1.547 3.44 3.44 3.44H15v-6.893h-3.44v.013z"/><path d="M11.56 30.333c-3 0-5.44-2.44-5.44-5.44s2.44-5.44 5.44-5.44H17v5.44c0 3-2.44 5.44-5.44 5.44zm0-8.893c-1.893 0-3.44 1.547-3.44 3.44s1.547 3.44 3.44 3.44A3.449 3.449 0 0 0 15 24.88v-3.44h-3.44zM20.44 12.56H15V1.667h5.44c3 0 5.44 2.44 5.44 5.44.013 3-2.44 5.453-5.44 5.453zm-3.44-2h3.44c1.893 0 3.44-1.547 3.44-3.44s-1.547-3.44-3.44-3.44H17v6.88z"/><path d="M20.44 21.44C17.44 21.44 15 19 15 16s2.44-5.44 5.44-5.44c3 0 5.44 2.44 5.44 5.44s-2.44 5.44-5.44 5.44zm0-8.88C18.547 12.56 17 14.107 17 16s1.547 3.44 3.44 3.44 3.44-1.547 3.44-3.44-1.533-3.44-3.44-3.44z"/></symbol><symbol id="icon-instagram" viewBox="0 0 32 32"><path d="M20 30.333h-8C4.76 30.333 1.667 27.24 1.667 20v-8C1.667 4.76 4.76 1.667 12 1.667h8c7.24 0 10.333 3.093 10.333 10.333v8c0 7.24-3.093 10.333-10.333 10.333zM12 3.667c-6.147 0-8.333 2.187-8.333 8.333v8c0 6.147 2.187 8.333 8.333 8.333h8c6.147 0 8.333-2.187 8.333-8.333v-8c0-6.147-2.187-8.333-8.333-8.333h-8z"/><path d="M16 21.667c-3.12 0-5.667-2.547-5.667-5.667S12.88 10.333 16 10.333c3.12 0 5.667 2.547 5.667 5.667S19.12 21.667 16 21.667zm0-9.334c-2.027 0-3.667 1.64-3.667 3.667s1.64 3.667 3.667 3.667 3.667-1.64 3.667-3.667-1.64-3.667-3.667-3.667zM22.667 10c-.173 0-.347-.04-.507-.107s-.307-.16-.44-.28c-.12-.133-.227-.28-.293-.44s-.093-.333-.093-.507c0-.173.027-.347.093-.507a1.69 1.69 0 0 1 .293-.44c.067-.053.133-.12.2-.16.08-.053.16-.093.24-.12.08-.04.16-.067.253-.08.427-.093.88.053 1.2.36.12.133.213.267.28.44.067.16.107.333.107.507s-.04.347-.107.507c-.067.16-.16.307-.28.44-.133.12-.28.213-.44.28s-.333.107-.507.107z"/></symbol><symbol id="icon-messenger" viewBox="0 0 32 32"><path d="M7.573 30.333a.99.99 0 0 1-1-1v-4.267c-3.133-2.547-4.907-6.173-4.907-10.053 0-7.36 6.427-13.347 14.333-13.347s14.333 5.987 14.333 13.347c0 7.36-6.427 13.347-14.333 13.347a15.25 15.25 0 0 1-3.813-.48l-4.12 2.32a.918.918 0 0 1-.493.133zM16 3.667c-6.8 0-12.333 5.093-12.333 11.347 0 3.413 1.64 6.613 4.52 8.773.253.187.4.48.4.8v3.04l2.987-1.68c.227-.133.507-.16.76-.093 1.187.333 2.427.507 3.667.507 6.8 0 12.333-5.093 12.333-11.347S22.801 3.667 16.001 3.667z"/><path d="M10 19.334c-.333 0-.667-.173-.853-.467-.227-.373-.2-.84.08-1.173l5.04-6a.985.985 0 0 1 1.227-.24l1.933 1.027 4.307-1.107c.427-.107.867.067 1.093.44s.2.84-.08 1.173l-5.013 6a1.004 1.004 0 0 1-1.267.227l-1.72-1-4.533 1.107c-.053 0-.133.013-.213.013zm4.92-3.2a1 1 0 0 1 .507.133l1.333.773 2.48-2.973-1.68.427c-.24.067-.493.027-.72-.08l-1.56-.827-2.56 3.04 1.947-.48c.093 0 .173-.013.253-.013z"/></symbol><symbol id="icon-arrow-up" viewBox="0 0 32 32"><path d="M26.56 21.067a.99.99 0 0 1-.707-.293l-8.693-8.693c-.64-.64-1.68-.64-2.32 0l-8.693 8.693c-.387.387-1.027.387-1.413 0s-.387-1.027 0-1.413l8.693-8.693c1.413-1.413 3.72-1.413 5.147 0l8.693 8.693a1.005 1.005 0 0 1 0 1.413c-.2.187-.453.293-.707.293z"/></symbol><symbol id="icon-calendar" viewBox="0 0 32 32"><path d="M12.747 25c-.547 0-1-.453-1-1v-6.667c0-.547.453-1 1-1s1 .453 1 1V24c0 .547-.453 1-1 1z"/><path d="M16 21.667H9.333c-.547 0-1-.453-1-1s.453-1 1-1H16c.547 0 1 .453 1 1s-.453 1-1 1zM10.667 7.667c-.547 0-1-.453-1-1v-4c0-.547.453-1 1-1s1 .453 1 1v4c0 .547-.453 1-1 1zM21.333 7.667c-.547 0-1-.453-1-1v-4c0-.547.453-1 1-1s1 .453 1 1v4c0 .547-.453 1-1 1z"/><path d="M11.8 30.414c-3.293 0-5.467-.72-6.827-2.267-1.573-1.773-1.827-4.427-1.88-6.787l-.173-8.227C2.787 6.826 4.88 4.2 10.347 3.786l10.72-.213h.053c5.48.187 7.667 2.72 7.8 9.04l.16 8.227c.053 2.36-.107 5.027-1.6 6.853-1.36 1.667-3.653 2.48-7.213 2.56l-8 .16H11.8zM21.067 5.56l-10.627.213c-3.733.293-5.64 1.493-5.52 7.32l.173 8.227c.053 2.827.467 4.48 1.373 5.507 1.013 1.147 2.84 1.653 5.773 1.587l8-.16c2.92-.053 4.733-.64 5.707-1.827.867-1.053 1.213-2.72 1.147-5.547l-.16-8.227c-.133-5.813-2.08-6.96-5.867-7.093z"/></symbol><symbol id="icon-class" viewBox="0 0 32 32"><path d="M23.547 30.226c-.707 0-1.613-.227-2.747-.893l-3.987-2.36c-.413-.24-1.213-.24-1.613 0l-4 2.36c-2.36 1.4-3.747.84-4.373.387-.613-.453-1.573-1.613-.947-4.28l.947-4.093c.107-.427-.107-1.16-.427-1.48L3.093 16.56C1.44 14.907 1.573 13.493 1.8 12.8s.947-1.92 3.24-2.307l4.253-.707c.4-.067.973-.493 1.147-.853l2.36-4.707c1.067-2.147 2.467-2.467 3.2-2.467s2.133.32 3.2 2.467l2.347 4.693c.187.36.76.787 1.16.853l4.253.707c2.307.387 3.027 1.613 3.24 2.307s.347 2.107-1.293 3.76l-3.307 3.32c-.32.32-.52 1.04-.427 1.48l.947 4.093c.613 2.667-.333 3.827-.947 4.28-.333.24-.867.507-1.627.507zM16 24.786c.653 0 1.307.16 1.827.467l3.987 2.36c1.16.693 1.893.693 2.173.493s.48-.907.187-2.213l-.947-4.093c-.253-1.107.16-2.533.96-3.347l3.307-3.307c.653-.653.947-1.293.813-1.733-.147-.44-.76-.8-1.667-.947l-4.253-.707c-1.027-.173-2.147-1-2.613-1.933l-2.347-4.693C17 4.28 16.467 3.773 16 3.773s-1 .507-1.413 1.36l-2.36 4.693c-.467.933-1.587 1.76-2.613 1.933l-4.24.707c-.907.147-1.52.507-1.667.947s.16 1.093.813 1.733l3.307 3.307c.8.8 1.213 2.24.96 3.347l-.947 4.093c-.307 1.32-.093 2.013.187 2.213s1 .187 2.173-.493l3.987-2.36c.507-.307 1.16-.467 1.813-.467z"/></symbol><symbol id="icon-location" viewBox="0 0 32 32"><path d="M16 30.347a7.963 7.963 0 0 1-5.507-2.227c-3.933-3.787-8.28-9.827-6.64-17.013 1.48-6.52 7.173-9.44 12.147-9.44h.013c4.973 0 10.667 2.92 12.147 9.453 1.627 7.187-2.72 13.213-6.653 17A7.961 7.961 0 0 1 16 30.347zm0-26.68c-3.88 0-8.867 2.067-10.187 7.88-1.44 6.28 2.507 11.693 6.08 15.12a5.9 5.9 0 0 0 8.227 0c3.56-3.427 7.507-8.84 6.093-15.12C24.88 5.734 19.88 3.667 16 3.667z"/><path d="M14.333 18.333a.99.99 0 0 1-.707-.293l-2-2c-.387-.387-.387-1.027 0-1.413s1.027-.387 1.413 0l1.293 1.293 4.627-4.627c.387-.387 1.027-.387 1.413 0s.387 1.027 0 1.413l-5.333 5.333c-.2.2-.453.293-.707.293z"/></symbol><symbol id="icon-passengers" viewBox="0 0 32 32"><path d="M12.213 15.493h-.107a.742.742 0 0 0-.24 0c-3.867-.12-6.787-3.16-6.787-6.907 0-3.813 3.107-6.92 6.92-6.92s6.92 3.107 6.92 6.92c-.013 3.747-2.947 6.787-6.667 6.907h-.04zm-.214-11.826a4.933 4.933 0 0 0-4.92 4.92 4.885 4.885 0 0 0 4.733 4.907c.08-.013.253-.013.427 0 2.613-.12 4.667-2.267 4.68-4.907a4.933 4.933 0 0 0-4.92-4.92zM22.053 15.667c-.04 0-.08 0-.12-.013-.547.053-1.107-.333-1.16-.88s.28-1.04.827-1.107c.16-.013.333-.013.48-.013a3.662 3.662 0 0 0 3.467-3.667A3.665 3.665 0 0 0 21.88 6.32c-.547.013-1-.44-1-.987s.453-1 1-1A5.68 5.68 0 0 1 27.547 10c0 3.067-2.4 5.547-5.453 5.667h-.04zM12.226 30.067c-2.613 0-5.24-.667-7.227-2-1.853-1.227-2.867-2.907-2.867-4.733s1.013-3.52 2.867-4.76c4-2.653 10.48-2.653 14.453 0 1.84 1.227 2.867 2.907 2.867 4.733s-1.013 3.52-2.867 4.76c-2 1.333-4.613 2-7.227 2zm-6.12-9.814c-1.28.853-1.973 1.947-1.973 3.093 0 1.133.707 2.227 1.973 3.067 3.32 2.227 8.92 2.227 12.24 0 1.28-.853 1.973-1.947 1.973-3.093 0-1.133-.707-2.227-1.973-3.067-3.32-2.213-8.92-2.213-12.24 0zM24.453 27.667a.983.983 0 0 1-.973-.8 1.014 1.014 0 0 1 .773-1.187c.84-.173 1.613-.507 2.213-.973.76-.573 1.173-1.293 1.173-2.053s-.413-1.48-1.16-2.04c-.587-.453-1.32-.773-2.187-.973a1.008 1.008 0 0 1-.76-1.2c.12-.533.653-.88 1.2-.76 1.147.253 2.147.707 2.96 1.333 1.24.933 1.947 2.253 1.947 3.64s-.72 2.707-1.96 3.653c-.827.64-1.867 1.107-3.013 1.333-.08.027-.147.027-.213.027z"/></symbol></defs></svg>