<svg aria-hidden="true" style="width:0;height:0;position:absolute;overflow:hidden" xmlns="http://www.w3.org/2000/svg"><defs><symbol id="icon-search" viewBox="0 0 32 32"><path fill="#8a8a8a" style="fill:var(--color1,#8a8a8a)" d="M15.333 29C7.8 29 1.666 22.867 1.666 15.333S7.799 1.666 15.333 1.666C22.866 1.666 29 7.799 29 15.333S22.867 29 15.333 29zm0-25.333c-6.44 0-11.667 5.24-11.667 11.667s5.227 11.667 11.667 11.667c6.44 0 11.667-5.24 11.667-11.667S21.773 3.667 15.333 3.667zM29.333 30.333a.99.99 0 0 1-.707-.293l-2.667-2.667c-.387-.387-.387-1.027 0-1.413s1.027-.387 1.413 0l2.667 2.667a1.005 1.005 0 0 1 0 1.413c-.2.2-.453.293-.707.293z"/></symbol><symbol id="icon-be" viewBox="0 0 32 32"><path d="M12 25H4a2.344 2.344 0 0 1-2.333-2.333V9.334A2.344 2.344 0 0 1 4 7.001h6.667c2.76 0 5 2.24 5 5 0 1.373-.56 2.613-1.453 3.52a4.994 4.994 0 0 1 2.787 4.48c0 2.76-2.24 5-5 5zm-8.333-8v5.667A.33.33 0 0 0 4 23h8c1.653 0 3-1.347 3-3s-1.347-3-3-3H3.667zm0-2h7c1.653 0 3-1.347 3-3s-1.347-3-3-3H4a.33.33 0 0 0-.333.333V15zM26.227 25H24c-3.493 0-6.333-2.84-6.333-6.333s2.84-6.333 6.333-6.333a6.339 6.339 0 0 1 6.333 6.333c0 .547-.453 1-1 1h-9.547A4.343 4.343 0 0 0 23.999 23h2.227c.547 0 1 .453 1 1s-.453 1-1 1zm-6.44-7.333h8.44c-.453-1.907-2.173-3.333-4.213-3.333s-3.773 1.427-4.227 3.333zM26 11h-4c-.547 0-1-.453-1-1s.453-1 1-1h4c.547 0 1 .453 1 1s-.453 1-1 1z"/></symbol><symbol id="icon-figma" viewBox="0 0 32 32"><path d="M17 12.56h-5.44c-3 0-5.44-2.44-5.44-5.44s2.44-5.44 5.44-5.44H17v10.88zm-5.44-8.894c-1.893 0-3.44 1.547-3.44 3.44s1.547 3.44 3.44 3.44H15V3.653h-3.44v.013z"/><path d="M17 21.44h-5.44c-3 0-5.44-2.44-5.44-5.44s2.44-5.44 5.44-5.44H17v10.88zm-5.44-8.88c-1.893 0-3.44 1.547-3.44 3.44s1.547 3.44 3.44 3.44H15v-6.893h-3.44v.013z"/><path d="M11.56 30.333c-3 0-5.44-2.44-5.44-5.44s2.44-5.44 5.44-5.44H17v5.44c0 3-2.44 5.44-5.44 5.44zm0-8.893c-1.893 0-3.44 1.547-3.44 3.44s1.547 3.44 3.44 3.44A3.449 3.449 0 0 0 15 24.88v-3.44h-3.44zM20.44 12.56H15V1.667h5.44c3 0 5.44 2.44 5.44 5.44.013 3-2.44 5.453-5.44 5.453zm-3.44-2h3.44c1.893 0 3.44-1.547 3.44-3.44s-1.547-3.44-3.44-3.44H17v6.88z"/><path d="M20.44 21.44C17.44 21.44 15 19 15 16s2.44-5.44 5.44-5.44c3 0 5.44 2.44 5.44 5.44s-2.44 5.44-5.44 5.44zm0-8.88C18.547 12.56 17 14.107 17 16s1.547 3.44 3.44 3.44 3.44-1.547 3.44-3.44-1.533-3.44-3.44-3.44z"/></symbol><symbol id="icon-instagram" viewBox="0 0 32 32"><path d="M20 30.333h-8C4.76 30.333 1.667 27.24 1.667 20v-8C1.667 4.76 4.76 1.667 12 1.667h8c7.24 0 10.333 3.093 10.333 10.333v8c0 7.24-3.093 10.333-10.333 10.333zM12 3.667c-6.147 0-8.333 2.187-8.333 8.333v8c0 6.147 2.187 8.333 8.333 8.333h8c6.147 0 8.333-2.187 8.333-8.333v-8c0-6.147-2.187-8.333-8.333-8.333h-8z"/><path d="M16 21.667c-3.12 0-5.667-2.547-5.667-5.667S12.88 10.333 16 10.333c3.12 0 5.667 2.547 5.667 5.667S19.12 21.667 16 21.667zm0-9.334c-2.027 0-3.667 1.64-3.667 3.667s1.64 3.667 3.667 3.667 3.667-1.64 3.667-3.667-1.64-3.667-3.667-3.667zM22.667 10c-.173 0-.347-.04-.507-.107s-.307-.16-.44-.28c-.12-.133-.227-.28-.293-.44s-.093-.333-.093-.507c0-.173.027-.347.093-.507a1.69 1.69 0 0 1 .293-.44c.067-.053.133-.12.2-.16.08-.053.16-.093.24-.12.08-.04.16-.067.253-.08.427-.093.88.053 1.2.36.12.133.213.267.28.44.067.16.107.333.107.507s-.04.347-.107.507c-.067.16-.16.307-.28.44-.133.12-.28.213-.44.28s-.333.107-.507.107z"/></symbol><symbol id="icon-messenger" viewBox="0 0 32 32"><path d="M7.573 30.333a.99.99 0 0 1-1-1v-4.267c-3.133-2.547-4.907-6.173-4.907-10.053 0-7.36 6.427-13.347 14.333-13.347s14.333 5.987 14.333 13.347c0 7.36-6.427 13.347-14.333 13.347a15.25 15.25 0 0 1-3.813-.48l-4.12 2.32a.918.918 0 0 1-.493.133zM16 3.667c-6.8 0-12.333 5.093-12.333 11.347 0 3.413 1.64 6.613 4.52 8.773.253.187.4.48.4.8v3.04l2.987-1.68c.227-.133.507-.16.76-.093 1.187.333 2.427.507 3.667.507 6.8 0 12.333-5.093 12.333-11.347S22.801 3.667 16.001 3.667z"/><path d="M10 19.334c-.333 0-.667-.173-.853-.467-.227-.373-.2-.84.08-1.173l5.04-6a.985.985 0 0 1 1.227-.24l1.933 1.027 4.307-1.107c.427-.107.867.067 1.093.44s.2.84-.08 1.173l-5.013 6a1.004 1.004 0 0 1-1.267.227l-1.72-1-4.533 1.107c-.053 0-.133.013-.213.013zm4.92-3.2a1 1 0 0 1 .507.133l1.333.773 2.48-2.973-1.68.427c-.24.067-.493.027-.72-.08l-1.56-.827-2.56 3.04 1.947-.48c.093 0 .173-.013.253-.013z"/></symbol></defs></svg>