<svg aria-hidden="true" style="width:0;height:0;position:absolute;overflow:hidden" xmlns="http://www.w3.org/2000/svg"><defs><symbol id="icon-search" viewBox="0 0 32 32"><path fill="#8a8a8a" style="fill:var(--color1,#8a8a8a)" d="M15.333 29C7.8 29 1.666 22.867 1.666 15.333S7.799 1.666 15.333 1.666C22.866 1.666 29 7.799 29 15.333S22.867 29 15.333 29zm0-25.333c-6.44 0-11.667 5.24-11.667 11.667s5.227 11.667 11.667 11.667c6.44 0 11.667-5.24 11.667-11.667S21.773 3.667 15.333 3.667zM29.333 30.333a.99.99 0 0 1-.707-.293l-2.667-2.667c-.387-.387-.387-1.027 0-1.413s1.027-.387 1.413 0l2.667 2.667a1.005 1.005 0 0 1 0 1.413c-.2.2-.453.293-.707.293z"/></symbol></defs></svg>