<?xml version="1.0" standalone="no"?>
<!DOCTYPE svg PUBLIC "-//W3C//DTD SVG 20010904//EN"
 "http://www.w3.org/TR/2001/REC-SVG-20010904/DTD/svg10.dtd">
<svg version="1.0" xmlns="http://www.w3.org/2000/svg"
 width="256.000000pt" height="256.000000pt" viewBox="0 0 256.000000 256.000000"
 preserveAspectRatio="xMidYMid meet">

<g transform="translate(0.000000,256.000000) scale(0.100000,-0.100000)"
fill="#000000" stroke="none">
<path d="M1662 2438 c-7 -7 -12 -20 -12 -30 0 -24 28 -78 39 -78 5 0 42 -42
82 -92 39 -51 84 -106 100 -123 15 -16 37 -49 49 -73 12 -23 28 -46 34 -50 18
-11 55 -91 45 -98 -5 -3 -26 7 -47 23 -20 16 -64 46 -97 68 -33 21 -69 46 -80
55 -19 16 -60 38 -170 90 -27 13 -56 28 -63 33 -7 6 -26 11 -43 12 -16 2 -56
18 -87 38 -31 19 -81 40 -110 48 -69 17 -102 2 -115 -54 -11 -45 3 -64 73
-105 25 -14 59 -36 76 -49 17 -13 36 -23 42 -23 6 0 18 -11 27 -24 8 -12 38
-35 66 -51 28 -15 59 -41 70 -59 10 -17 34 -43 53 -58 34 -28 106 -154 106
-188 0 -10 7 -23 15 -30 8 -7 17 -28 20 -49 4 -20 13 -52 21 -71 34 -81 38
-246 8 -355 -23 -83 -70 -172 -95 -180 -11 -4 -19 -10 -19 -15 0 -5 -20 -23
-44 -39 -48 -34 -170 -60 -301 -66 -405 -19 -525 -18 -525 4 0 9 152 81 171
81 18 0 66 38 89 70 17 24 18 33 9 54 -18 39 -59 51 -106 31 -21 -9 -53 -23
-71 -31 -18 -8 -40 -14 -48 -14 -9 0 -28 -6 -42 -14 -28 -14 -66 -28 -142 -53
-25 -8 -54 -19 -65 -23 -11 -5 -36 -11 -55 -15 -19 -3 -42 -7 -50 -9 -8 -1
-48 -9 -89 -16 -65 -12 -76 -17 -92 -44 -35 -58 -24 -108 30 -135 33 -17 161
-58 204 -67 10 -1 41 -14 70 -27 29 -14 68 -32 87 -41 41 -18 65 -33 103 -63
16 -13 34 -23 42 -23 7 0 15 -6 18 -14 3 -8 31 -26 63 -42 34 -17 64 -39 73
-56 9 -16 35 -37 58 -49 45 -22 100 -77 159 -158 59 -83 115 -100 144 -45 42
77 -64 258 -206 354 -27 18 -67 51 -89 73 -22 21 -50 43 -62 48 -56 21 -16 28
161 28 102 -1 189 1 193 4 5 3 29 8 53 11 174 23 226 38 318 92 52 30 162 140
162 162 0 8 9 26 20 42 25 35 66 152 74 210 8 65 -19 350 -33 350 -5 0 -18 33
-31 73 -12 39 -27 82 -31 95 -5 13 -9 31 -9 40 0 9 -7 30 -15 46 -31 60 -28
57 223 -169 24 -21 52 -56 63 -76 36 -71 84 -87 131 -42 32 31 37 72 12 118
-15 28 -49 143 -57 190 -2 11 -18 47 -35 79 -18 32 -32 64 -32 71 0 7 -8 23
-18 36 -10 13 -27 48 -38 77 -11 32 -37 73 -66 104 -26 28 -48 56 -48 62 0 7
-33 42 -72 78 -40 37 -84 78 -98 91 -51 50 -122 71 -148 45z"/>
</g>
</svg>
