<svg width="22" height="20" viewBox="0 0 22 20" fill="none" xmlns="http://www.w3.org/2000/svg">
<path d="M11.1667 19.3936C10.8703 19.3936 10.5834 19.3553 10.3444 19.2693C6.69196 18.0167 0.888184 13.5707 0.888184 7.00199C0.888184 3.6555 3.59406 0.940063 6.92143 0.940063C8.53731 0.940063 10.048 1.57112 11.1667 2.69936C12.2854 1.57112 13.7961 0.940063 15.412 0.940063C18.7393 0.940063 21.4452 3.66506 21.4452 7.00199C21.4452 13.5802 15.6414 18.0167 11.989 19.2693C11.7499 19.3553 11.4631 19.3936 11.1667 19.3936ZM6.92143 2.37427C4.38766 2.37427 2.32239 4.4491 2.32239 7.00199C2.32239 13.5324 8.60424 17.1658 10.8129 17.9211C10.985 17.9785 11.3579 17.9785 11.53 17.9211C13.7291 17.1658 20.0206 13.542 20.0206 7.00199C20.0206 4.4491 17.9553 2.37427 15.4215 2.37427C13.9682 2.37427 12.62 3.05313 11.7499 4.22919C11.4822 4.59252 10.8703 4.59252 10.6026 4.22919C9.71336 3.04357 8.37476 2.37427 6.92143 2.37427Z" fill="#F3F3F3"/>
</svg>
