<svg aria-hidden="true" style="position: absolute; width: 0; height: 0; overflow: hidden;" version="1.1" xmlns="http://www.w3.org/2000/svg" xmlns:xlink="http://www.w3.org/1999/xlink">
<defs>
<symbol id="icon-search" viewBox="0 0 32 32">
<path fill="#8a8a8a" style="fill: var(--color1, #8a8a8a)" d="M15.333 29c-7.533 0-13.667-6.133-13.667-13.667s6.133-13.667 13.667-13.667c7.533 0 13.667 6.133 13.667 13.667s-6.133 13.667-13.667 13.667zM15.333 3.667c-6.44 0-11.667 5.24-11.667 11.667s5.227 11.667 11.667 11.667c6.44 0 11.667-5.24 11.667-11.667s-5.227-11.667-11.667-11.667z"></path>
<path fill="#8a8a8a" style="fill: var(--color1, #8a8a8a)" d="M29.333 30.333c-0.253 0-0.507-0.093-0.707-0.293l-2.667-2.667c-0.387-0.387-0.387-1.027 0-1.413s1.027-0.387 1.413 0l2.667 2.667c0.387 0.387 0.387 1.027 0 1.413-0.2 0.2-0.453 0.293-0.707 0.293z"></path>
</symbol>

<symbol id="icon-be" viewBox="0 0 32 32">
<path d="M12 25h-8c-1.28 0-2.333-1.053-2.333-2.333v-13.333c0-1.28 1.053-2.333 2.333-2.333h6.667c2.76 0 5 2.24 5 5 0 1.373-0.56 2.613-1.453 3.52 1.653 0.813 2.787 2.52 2.787 4.48 0 2.76-2.24 5-5 5zM3.667 17v5.667c0 0.187 0.147 0.333 0.333 0.333h8c1.653 0 3-1.347 3-3s-1.347-3-3-3h-8.333zM3.667 15h7c1.653 0 3-1.347 3-3s-1.347-3-3-3h-6.667c-0.187 0-0.333 0.147-0.333 0.333v5.667z"></path>
<path d="M26.227 25h-2.227c-3.493 0-6.333-2.84-6.333-6.333s2.84-6.333 6.333-6.333c3.493 0 6.333 2.84 6.333 6.333 0 0.547-0.453 1-1 1h-9.547c0.453 1.907 2.173 3.333 4.213 3.333h2.227c0.547 0 1 0.453 1 1s-0.453 1-1 1zM19.787 17.667h8.44c-0.453-1.907-2.173-3.333-4.213-3.333s-3.773 1.427-4.227 3.333z"></path>
<path d="M26 11h-4c-0.547 0-1-0.453-1-1s0.453-1 1-1h4c0.547 0 1 0.453 1 1s-0.453 1-1 1z"></path>
</symbol>

<symbol id="icon-figma" viewBox="0 0 32 32">
<path d="M17 12.56h-5.44c-3 0-5.44-2.44-5.44-5.44s2.44-5.44 5.44-5.44h5.44v10.88zM11.56 3.666c-1.893 0-3.44 1.547-3.44 3.44s1.547 3.44 3.44 3.44h3.44v-6.893h-3.44v0.013z"></path>
<path d="M17 21.44h-5.44c-3 0-5.44-2.44-5.44-5.44s2.44-5.44 5.44-5.44h5.44v10.88zM11.56 12.56c-1.893 0-3.44 1.547-3.44 3.44s1.547 3.44 3.44 3.44h3.44v-6.893h-3.44v0.013z"></path>
<path d="M11.56 30.333c-3 0-5.44-2.44-5.44-5.44s2.44-5.44 5.44-5.44h5.44v5.44c0 3-2.44 5.44-5.44 5.44zM11.56 21.44c-1.893 0-3.44 1.547-3.44 3.44s1.547 3.44 3.44 3.44c1.893 0 3.44-1.547 3.44-3.44v-3.44h-3.44z"></path>
<path d="M20.44 12.56h-5.44v-10.893h5.44c3 0 5.44 2.44 5.44 5.44 0.013 3-2.44 5.453-5.44 5.453zM17 10.56h3.44c1.893 0 3.44-1.547 3.44-3.44s-1.547-3.44-3.44-3.44h-3.44v6.88z"></path>
<path d="M20.44 21.44c-3 0-5.44-2.44-5.44-5.44s2.44-5.44 5.44-5.44c3 0 5.44 2.44 5.44 5.44s-2.44 5.44-5.44 5.44zM20.44 12.56c-1.893 0-3.44 1.547-3.44 3.44s1.547 3.44 3.44 3.44c1.893 0 3.44-1.547 3.44-3.44s-1.533-3.44-3.44-3.44z"></path>
</symbol>

<symbol id="icon-instagram" viewBox="0 0 32 32">
<path d="M20 30.333h-8c-7.24 0-10.333-3.093-10.333-10.333v-8c0-7.24 3.093-10.333 10.333-10.333h8c7.24 0 10.333 3.093 10.333 10.333v8c0 7.24-3.093 10.333-10.333 10.333zM12 3.667c-6.147 0-8.333 2.187-8.333 8.333v8c0 6.147 2.187 8.333 8.333 8.333h8c6.147 0 8.333-2.187 8.333-8.333v-8c0-6.147-2.187-8.333-8.333-8.333h-8z"></path>
<path d="M16 21.667c-3.12 0-5.667-2.547-5.667-5.667s2.547-5.667 5.667-5.667c3.12 0 5.667 2.547 5.667 5.667s-2.547 5.667-5.667 5.667zM16 12.333c-2.027 0-3.667 1.64-3.667 3.667s1.64 3.667 3.667 3.667c2.027 0 3.667-1.64 3.667-3.667s-1.64-3.667-3.667-3.667z"></path>
<path d="M22.667 10c-0.173 0-0.347-0.040-0.507-0.107s-0.307-0.16-0.44-0.28c-0.12-0.133-0.227-0.28-0.293-0.44s-0.093-0.333-0.093-0.507c0-0.173 0.027-0.347 0.093-0.507 0.080-0.173 0.173-0.307 0.293-0.44 0.067-0.053 0.133-0.12 0.2-0.16 0.080-0.053 0.16-0.093 0.24-0.12 0.080-0.040 0.16-0.067 0.253-0.080 0.427-0.093 0.88 0.053 1.2 0.36 0.12 0.133 0.213 0.267 0.28 0.44 0.067 0.16 0.107 0.333 0.107 0.507s-0.040 0.347-0.107 0.507c-0.067 0.16-0.16 0.307-0.28 0.44-0.133 0.12-0.28 0.213-0.44 0.28s-0.333 0.107-0.507 0.107z"></path>
</symbol>

<symbol id="icon-messenger" viewBox="0 0 32 32">
<path d="M7.573 30.333c-0.173 0-0.347-0.040-0.507-0.133-0.307-0.173-0.493-0.507-0.493-0.867v-4.267c-3.133-2.547-4.907-6.173-4.907-10.053 0-7.36 6.427-13.347 14.333-13.347s14.333 5.987 14.333 13.347c0 7.36-6.427 13.347-14.333 13.347-1.293 0-2.573-0.16-3.813-0.48l-4.12 2.32c-0.147 0.093-0.32 0.133-0.493 0.133zM16 3.667c-6.8 0-12.333 5.093-12.333 11.347 0 3.413 1.64 6.613 4.52 8.773 0.253 0.187 0.4 0.48 0.4 0.8v3.040l2.987-1.68c0.227-0.133 0.507-0.16 0.76-0.093 1.187 0.333 2.427 0.507 3.667 0.507 6.8 0 12.333-5.093 12.333-11.347s-5.533-11.347-12.333-11.347z"></path>
<path d="M10 19.334c-0.333 0-0.667-0.173-0.853-0.467-0.227-0.373-0.2-0.84 0.080-1.173l5.040-6c0.307-0.36 0.813-0.467 1.227-0.24l1.933 1.027 4.307-1.107c0.427-0.107 0.867 0.067 1.093 0.44s0.2 0.84-0.080 1.173l-5.013 6c-0.307 0.373-0.853 0.467-1.267 0.227l-1.72-1-4.533 1.107c-0.053 0-0.133 0.013-0.213 0.013zM14.92 16.134c0.173 0 0.347 0.040 0.507 0.133l1.333 0.773 2.48-2.973-1.68 0.427c-0.24 0.067-0.493 0.027-0.72-0.080l-1.56-0.827-2.56 3.040 1.947-0.48c0.093 0 0.173-0.013 0.253-0.013z"></path>
</symbol>

<symbol id="icon-arrow-up" viewBox="0 0 32 32">
<path d="M26.56 21.067c-0.253 0-0.507-0.093-0.707-0.293l-8.693-8.693c-0.64-0.64-1.68-0.64-2.32 0l-8.693 8.693c-0.387 0.387-1.027 0.387-1.413 0s-0.387-1.027 0-1.413l8.693-8.693c1.413-1.413 3.72-1.413 5.147 0l8.693 8.693c0.387 0.387 0.387 1.027 0 1.413-0.2 0.187-0.453 0.293-0.707 0.293z"></path>
</symbol>

<symbol id="icon-calendar" viewBox="0 0 32 32">
<path d="M12.747 25c-0.547 0-1-0.453-1-1v-6.667c0-0.547 0.453-1 1-1s1 0.453 1 1v6.667c0 0.547-0.453 1-1 1z"></path>
<path d="M16 21.667h-6.667c-0.547 0-1-0.453-1-1s0.453-1 1-1h6.667c0.547 0 1 0.453 1 1s-0.453 1-1 1z"></path>
<path d="M10.667 7.667c-0.547 0-1-0.453-1-1v-4c0-0.547 0.453-1 1-1s1 0.453 1 1v4c0 0.547-0.453 1-1 1z"></path>
<path d="M21.333 7.667c-0.547 0-1-0.453-1-1v-4c0-0.547 0.453-1 1-1s1 0.453 1 1v4c0 0.547-0.453 1-1 1z"></path>
<path d="M11.8 30.414c-3.293 0-5.467-0.72-6.827-2.267-1.573-1.773-1.827-4.427-1.88-6.787l-0.173-8.227c-0.133-6.307 1.96-8.933 7.427-9.347l10.72-0.213c0.027 0 0.040 0 0.053 0 5.48 0.187 7.667 2.72 7.8 9.040l0.16 8.227c0.053 2.36-0.107 5.027-1.6 6.853-1.36 1.667-3.653 2.48-7.213 2.56l-8 0.16c-0.16 0-0.32 0-0.467 0zM21.067 5.56l-10.627 0.213c-3.733 0.293-5.64 1.493-5.52 7.32l0.173 8.227c0.053 2.827 0.467 4.48 1.373 5.507 1.013 1.147 2.84 1.653 5.773 1.587l8-0.16c2.92-0.053 4.733-0.64 5.707-1.827 0.867-1.053 1.213-2.72 1.147-5.547l-0.16-8.227c-0.133-5.813-2.080-6.96-5.867-7.093z"></path>
</symbol>

<symbol id="icon-class" viewBox="0 0 32 32">
<path d="M23.547 30.226c-0.707 0-1.613-0.227-2.747-0.893l-3.987-2.36c-0.413-0.24-1.213-0.24-1.613 0l-4 2.36c-2.36 1.4-3.747 0.84-4.373 0.387-0.613-0.453-1.573-1.613-0.947-4.28l0.947-4.093c0.107-0.427-0.107-1.16-0.427-1.48l-3.307-3.307c-1.653-1.653-1.52-3.067-1.293-3.76s0.947-1.92 3.24-2.307l4.253-0.707c0.4-0.067 0.973-0.493 1.147-0.853l2.36-4.707c1.067-2.147 2.467-2.467 3.2-2.467s2.133 0.32 3.2 2.467l2.347 4.693c0.187 0.36 0.76 0.787 1.16 0.853l4.253 0.707c2.307 0.387 3.027 1.613 3.24 2.307s0.347 2.107-1.293 3.76l-3.307 3.32c-0.32 0.32-0.52 1.040-0.427 1.48l0.947 4.093c0.613 2.667-0.333 3.827-0.947 4.28-0.333 0.24-0.867 0.507-1.627 0.507zM16 24.786c0.653 0 1.307 0.16 1.827 0.467l3.987 2.36c1.16 0.693 1.893 0.693 2.173 0.493s0.48-0.907 0.187-2.213l-0.947-4.093c-0.253-1.107 0.16-2.533 0.96-3.347l3.307-3.307c0.653-0.653 0.947-1.293 0.813-1.733-0.147-0.44-0.76-0.8-1.667-0.947l-4.253-0.707c-1.027-0.173-2.147-1-2.613-1.933l-2.347-4.693c-0.427-0.853-0.96-1.36-1.427-1.36s-1 0.507-1.413 1.36l-2.36 4.693c-0.467 0.933-1.587 1.76-2.613 1.933l-4.24 0.707c-0.907 0.147-1.52 0.507-1.667 0.947s0.16 1.093 0.813 1.733l3.307 3.307c0.8 0.8 1.213 2.24 0.96 3.347l-0.947 4.093c-0.307 1.32-0.093 2.013 0.187 2.213s1 0.187 2.173-0.493l3.987-2.36c0.507-0.307 1.16-0.467 1.813-0.467z"></path>
</symbol>

<symbol id="icon-location" viewBox="0 0 32 32">
<path d="M16 30.347c-1.973 0-3.96-0.747-5.507-2.227-3.933-3.787-8.28-9.827-6.64-17.013 1.48-6.52 7.173-9.44 12.147-9.44 0 0 0 0 0.013 0 4.973 0 10.667 2.92 12.147 9.453 1.627 7.187-2.72 13.213-6.653 17-1.547 1.48-3.533 2.227-5.507 2.227zM16 3.667c-3.88 0-8.867 2.067-10.187 7.88-1.44 6.28 2.507 11.693 6.080 15.12 2.307 2.227 5.92 2.227 8.227 0 3.56-3.427 7.507-8.84 6.093-15.12-1.333-5.813-6.333-7.88-10.213-7.88z"></path>
<path d="M14.333 18.333c-0.253 0-0.507-0.093-0.707-0.293l-2-2c-0.387-0.387-0.387-1.027 0-1.413s1.027-0.387 1.413 0l1.293 1.293 4.627-4.627c0.387-0.387 1.027-0.387 1.413 0s0.387 1.027 0 1.413l-5.333 5.333c-0.2 0.2-0.453 0.293-0.707 0.293z"></path>
</symbol>

<symbol id="icon-passengers" viewBox="0 0 32 32">
<path d="M12.213 15.493c-0.040 0-0.067 0-0.107 0-0.067-0.013-0.16-0.013-0.24 0-3.867-0.12-6.787-3.16-6.787-6.907 0-3.813 3.107-6.92 6.92-6.92s6.92 3.107 6.92 6.92c-0.013 3.747-2.947 6.787-6.667 6.907-0.013 0-0.027 0-0.040 0zM11.999 3.667c-2.707 0-4.92 2.213-4.92 4.92 0 2.667 2.080 4.813 4.733 4.907 0.080-0.013 0.253-0.013 0.427 0 2.613-0.12 4.667-2.267 4.68-4.907 0-2.707-2.213-4.92-4.92-4.92z"></path>
<path d="M22.053 15.667c-0.040 0-0.080 0-0.12-0.013-0.547 0.053-1.107-0.333-1.16-0.88s0.28-1.040 0.827-1.107c0.16-0.013 0.333-0.013 0.48-0.013 1.947-0.107 3.467-1.707 3.467-3.667 0-2.027-1.64-3.667-3.667-3.667-0.547 0.013-1-0.44-1-0.987s0.453-1 1-1c3.12 0 5.667 2.547 5.667 5.667 0 3.067-2.4 5.547-5.453 5.667-0.013 0-0.027 0-0.040 0z"></path>
<path d="M12.226 30.067c-2.613 0-5.24-0.667-7.227-2-1.853-1.227-2.867-2.907-2.867-4.733s1.013-3.52 2.867-4.76c4-2.653 10.48-2.653 14.453 0 1.84 1.227 2.867 2.907 2.867 4.733s-1.013 3.52-2.867 4.76c-2 1.333-4.613 2-7.227 2zM6.106 20.253c-1.28 0.853-1.973 1.947-1.973 3.093 0 1.133 0.707 2.227 1.973 3.067 3.32 2.227 8.92 2.227 12.24 0 1.28-0.853 1.973-1.947 1.973-3.093 0-1.133-0.707-2.227-1.973-3.067-3.32-2.213-8.92-2.213-12.24 0z"></path>
<path d="M24.453 27.667c-0.467 0-0.88-0.32-0.973-0.8-0.107-0.547 0.24-1.067 0.773-1.187 0.84-0.173 1.613-0.507 2.213-0.973 0.76-0.573 1.173-1.293 1.173-2.053s-0.413-1.48-1.16-2.040c-0.587-0.453-1.32-0.773-2.187-0.973-0.533-0.12-0.88-0.653-0.76-1.2 0.12-0.533 0.653-0.88 1.2-0.76 1.147 0.253 2.147 0.707 2.96 1.333 1.24 0.933 1.947 2.253 1.947 3.64s-0.72 2.707-1.96 3.653c-0.827 0.64-1.867 1.107-3.013 1.333-0.080 0.027-0.147 0.027-0.213 0.027z"></path>
</symbol>

</defs>
</svg>
