<svg aria-hidden="true" style="position: absolute; width: 0; height: 0; overflow: hidden;" version="1.1" xmlns="http://www.w3.org/2000/svg" xmlns:xlink="http://www.w3.org/1999/xlink">
<defs>
<symbol id="icon-search" viewBox="0 0 32 32">
<path fill="#8a8a8a" style="fill: var(--color1, #8a8a8a)" d="M15.333 29c-7.533 0-13.667-6.133-13.667-13.667s6.133-13.667 13.667-13.667c7.533 0 13.667 6.133 13.667 13.667s-6.133 13.667-13.667 13.667zM15.333 3.667c-6.44 0-11.667 5.24-11.667 11.667s5.227 11.667 11.667 11.667c6.44 0 11.667-5.24 11.667-11.667s-5.227-11.667-11.667-11.667z"></path>
<path fill="#8a8a8a" style="fill: var(--color1, #8a8a8a)" d="M29.333 30.333c-0.253 0-0.507-0.093-0.707-0.293l-2.667-2.667c-0.387-0.387-0.387-1.027 0-1.413s1.027-0.387 1.413 0l2.667 2.667c0.387 0.387 0.387 1.027 0 1.413-0.2 0.2-0.453 0.293-0.707 0.293z"></path>
</symbol>

<symbol id="icon-be" viewBox="0 0 32 32">
<path d="M12 25h-8c-1.28 0-2.333-1.053-2.333-2.333v-13.333c0-1.28 1.053-2.333 2.333-2.333h6.667c2.76 0 5 2.24 5 5 0 1.373-0.56 2.613-1.453 3.52 1.653 0.813 2.787 2.52 2.787 4.48 0 2.76-2.24 5-5 5zM3.667 17v5.667c0 0.187 0.147 0.333 0.333 0.333h8c1.653 0 3-1.347 3-3s-1.347-3-3-3h-8.333zM3.667 15h7c1.653 0 3-1.347 3-3s-1.347-3-3-3h-6.667c-0.187 0-0.333 0.147-0.333 0.333v5.667z"></path>
<path d="M26.227 25h-2.227c-3.493 0-6.333-2.84-6.333-6.333s2.84-6.333 6.333-6.333c3.493 0 6.333 2.84 6.333 6.333 0 0.547-0.453 1-1 1h-9.547c0.453 1.907 2.173 3.333 4.213 3.333h2.227c0.547 0 1 0.453 1 1s-0.453 1-1 1zM19.787 17.667h8.44c-0.453-1.907-2.173-3.333-4.213-3.333s-3.773 1.427-4.227 3.333z"></path>
<path d="M26 11h-4c-0.547 0-1-0.453-1-1s0.453-1 1-1h4c0.547 0 1 0.453 1 1s-0.453 1-1 1z"></path>
</symbol>

<symbol id="icon-figma" viewBox="0 0 32 32">
<path d="M17 12.56h-5.44c-3 0-5.44-2.44-5.44-5.44s2.44-5.44 5.44-5.44h5.44v10.88zM11.56 3.666c-1.893 0-3.44 1.547-3.44 3.44s1.547 3.44 3.44 3.44h3.44v-6.893h-3.44v0.013z"></path>
<path d="M17 21.44h-5.44c-3 0-5.44-2.44-5.44-5.44s2.44-5.44 5.44-5.44h5.44v10.88zM11.56 12.56c-1.893 0-3.44 1.547-3.44 3.44s1.547 3.44 3.44 3.44h3.44v-6.893h-3.44v0.013z"></path>
<path d="M11.56 30.333c-3 0-5.44-2.44-5.44-5.44s2.44-5.44 5.44-5.44h5.44v5.44c0 3-2.44 5.44-5.44 5.44zM11.56 21.44c-1.893 0-3.44 1.547-3.44 3.44s1.547 3.44 3.44 3.44c1.893 0 3.44-1.547 3.44-3.44v-3.44h-3.44z"></path>
<path d="M20.44 12.56h-5.44v-10.893h5.44c3 0 5.44 2.44 5.44 5.44 0.013 3-2.44 5.453-5.44 5.453zM17 10.56h3.44c1.893 0 3.44-1.547 3.44-3.44s-1.547-3.44-3.44-3.44h-3.44v6.88z"></path>
<path d="M20.44 21.44c-3 0-5.44-2.44-5.44-5.44s2.44-5.44 5.44-5.44c3 0 5.44 2.44 5.44 5.44s-2.44 5.44-5.44 5.44zM20.44 12.56c-1.893 0-3.44 1.547-3.44 3.44s1.547 3.44 3.44 3.44c1.893 0 3.44-1.547 3.44-3.44s-1.533-3.44-3.44-3.44z"></path>
</symbol>

<symbol id="icon-instagram" viewBox="0 0 32 32">
<path d="M20 30.333h-8c-7.24 0-10.333-3.093-10.333-10.333v-8c0-7.24 3.093-10.333 10.333-10.333h8c7.24 0 10.333 3.093 10.333 10.333v8c0 7.24-3.093 10.333-10.333 10.333zM12 3.667c-6.147 0-8.333 2.187-8.333 8.333v8c0 6.147 2.187 8.333 8.333 8.333h8c6.147 0 8.333-2.187 8.333-8.333v-8c0-6.147-2.187-8.333-8.333-8.333h-8z"></path>
<path d="M16 21.667c-3.12 0-5.667-2.547-5.667-5.667s2.547-5.667 5.667-5.667c3.12 0 5.667 2.547 5.667 5.667s-2.547 5.667-5.667 5.667zM16 12.333c-2.027 0-3.667 1.64-3.667 3.667s1.64 3.667 3.667 3.667c2.027 0 3.667-1.64 3.667-3.667s-1.64-3.667-3.667-3.667z"></path>
<path d="M22.667 10c-0.173 0-0.347-0.040-0.507-0.107s-0.307-0.16-0.44-0.28c-0.12-0.133-0.227-0.28-0.293-0.44s-0.093-0.333-0.093-0.507c0-0.173 0.027-0.347 0.093-0.507 0.080-0.173 0.173-0.307 0.293-0.44 0.067-0.053 0.133-0.12 0.2-0.16 0.080-0.053 0.16-0.093 0.24-0.12 0.080-0.040 0.16-0.067 0.253-0.080 0.427-0.093 0.88 0.053 1.2 0.36 0.12 0.133 0.213 0.267 0.28 0.44 0.067 0.16 0.107 0.333 0.107 0.507s-0.040 0.347-0.107 0.507c-0.067 0.16-0.16 0.307-0.28 0.44-0.133 0.12-0.28 0.213-0.44 0.28s-0.333 0.107-0.507 0.107z"></path>
</symbol>

<symbol id="icon-messenger" viewBox="0 0 32 32">
<path d="M7.573 30.333c-0.173 0-0.347-0.040-0.507-0.133-0.307-0.173-0.493-0.507-0.493-0.867v-4.267c-3.133-2.547-4.907-6.173-4.907-10.053 0-7.36 6.427-13.347 14.333-13.347s14.333 5.987 14.333 13.347c0 7.36-6.427 13.347-14.333 13.347-1.293 0-2.573-0.16-3.813-0.48l-4.12 2.32c-0.147 0.093-0.32 0.133-0.493 0.133zM16 3.667c-6.8 0-12.333 5.093-12.333 11.347 0 3.413 1.64 6.613 4.52 8.773 0.253 0.187 0.4 0.48 0.4 0.8v3.040l2.987-1.68c0.227-0.133 0.507-0.16 0.76-0.093 1.187 0.333 2.427 0.507 3.667 0.507 6.8 0 12.333-5.093 12.333-11.347s-5.533-11.347-12.333-11.347z"></path>
<path d="M10 19.334c-0.333 0-0.667-0.173-0.853-0.467-0.227-0.373-0.2-0.84 0.080-1.173l5.040-6c0.307-0.36 0.813-0.467 1.227-0.24l1.933 1.027 4.307-1.107c0.427-0.107 0.867 0.067 1.093 0.44s0.2 0.84-0.080 1.173l-5.013 6c-0.307 0.373-0.853 0.467-1.267 0.227l-1.72-1-4.533 1.107c-0.053 0-0.133 0.013-0.213 0.013zM14.92 16.134c0.173 0 0.347 0.040 0.507 0.133l1.333 0.773 2.48-2.973-1.68 0.427c-0.24 0.067-0.493 0.027-0.72-0.080l-1.56-0.827-2.56 3.040 1.947-0.48c0.093 0 0.173-0.013 0.253-0.013z"></path>
</symbol>

</defs>
</svg>
